<?xml version="1.0" encoding="UTF-8" standalone="no"?>
<!-- Created with Inkscape (http://www.inkscape.org/) -->

<svg
   xmlns:dc="http://purl.org/dc/elements/1.1/"
   xmlns:cc="http://creativecommons.org/ns#"
   xmlns:rdf="http://www.w3.org/1999/02/22-rdf-syntax-ns#"
   xmlns:svg="http://www.w3.org/2000/svg"
   xmlns="http://www.w3.org/2000/svg"
   xmlns:sodipodi="http://sodipodi.sourceforge.net/DTD/sodipodi-0.dtd"
   xmlns:inkscape="http://www.inkscape.org/namespaces/inkscape"
   width="110.6875"
   height="101.4375"
   id="svg8662"
   version="1.1"
   inkscape:version="0.48.4 r9939"
   sodipodi:docname="New document 82">
  <defs
     id="defs8664" />
  <sodipodi:namedview
     id="base"
     pagecolor="#ffffff"
     bordercolor="#666666"
     borderopacity="1.0"
     inkscape:pageopacity="0.0"
     inkscape:pageshadow="2"
     inkscape:zoom="1.979899"
     inkscape:cx="-4.4633291"
     inkscape:cy="70.088747"
     inkscape:document-units="px"
     inkscape:current-layer="layer1"
     showgrid="false"
     fit-margin-top="0"
     fit-margin-left="0"
     fit-margin-right="0"
     fit-margin-bottom="0"
     inkscape:window-width="861"
     inkscape:window-height="635"
     inkscape:window-x="1"
     inkscape:window-y="66"
     inkscape:window-maximized="0" />
  <metadata
     id="metadata8667">
    <rdf:RDF>
      <cc:Work
         rdf:about="">
        <dc:format>image/svg+xml</dc:format>
        <dc:type
           rdf:resource="http://purl.org/dc/dcmitype/StillImage" />
        <dc:title></dc:title>
      </cc:Work>
    </rdf:RDF>
  </metadata>
  <g
     inkscape:label="Layer 1"
     inkscape:groupmode="layer"
     id="layer1"
     transform="translate(-420.03125,-780.90625)">
    <path
       id="path4912"
       d="m 458.67875,784.57457 0,27.125 -35.00441,0 0,34.125 35.00441,0 0,32.875 34.0937,0 0,-32.875 34.2813,0 0,-34.125 -34.2813,0 0,-27.125 z"
       style="fill:#00ff00;fill-opacity:1;stroke:#000000;stroke-width:7.31500006;stroke-linejoin:round;stroke-miterlimit:4;stroke-opacity:1;stroke-dasharray:none;stroke-dashoffset:0"
       inkscape:connector-curvature="0"
       sodipodi:nodetypes="ccccccccccccc" />
    <path
       style="fill:#008000;stroke:#000000;stroke-width:0.36292967px;stroke-linecap:butt;stroke-linejoin:miter;stroke-opacity:1"
       d="m 446.41178,842.79486 c 4.8562,-3.04189 8.02734,-8.121 11.7767,-12.30079 4.19467,-5.94123 8.43308,-8.90398 15.3907,-5.16383 5.86726,1.46062 12.33788,1.71714 18.68561,1.73321 8.50671,0.38922 5.37677,11.55632 8.24076,17.03003 0.94861,3.34636 2.74555,7.12617 -2.29506,4.57147 -9.69484,-2.20453 -19.56727,-3.20436 -29.47976,-3.55819 -6.29458,-1.79452 -12.79267,-1.14197 -19.23695,-1.22391 -1.0812,-0.17509 -2.13135,-0.5437 -3.0821,-1.08805 z"
       id="path8731"
       inkscape:connector-curvature="0" />
    <path
       style="fill:#008000;stroke:#000000;stroke-width:0.36292967px;stroke-linecap:butt;stroke-linejoin:miter;stroke-opacity:1"
       d="m 436.20518,821.43997 c 6.6854,-2.44238 13.52273,-4.55834 20.61236,-5.20054 7.52795,-1.37305 14.79055,-3.64973 21.93931,-6.31411 7.61976,-2.43642 11.9413,7.04391 19.28806,8.17079 5.70446,2.71623 12.32661,4.12717 17.48181,7.61511 -5.2253,3.23068 -12.22131,3.38091 -18.28335,4.89272 -8.67072,2.45737 -17.75672,3.07281 -26.72161,2.76686 -7.9237,-1.46627 -16.26787,-2.05679 -23.13821,-6.68005 -3.68232,-1.83975 -7.24862,-4.1595 -11.17829,-5.25095 z"
       id="path8733"
       inkscape:connector-curvature="0" />
    <path
       style="fill:#ffff00;stroke:#000000;stroke-width:0.36292967px;stroke-linecap:butt;stroke-linejoin:miter;stroke-opacity:1"
       d="m 476.15124,822.16101 c -5.87604,-4.15282 -8.06841,6.6116 -1.0143,5.57627 8.12229,2.8902 8.72924,-7.3641 2.83733,-10.62773 -6.88278,-4.60244 -14.5931,-8.80375 -23.13762,-8.62382 -10.14881,-1.92365 -19.81473,4.63202 -24.69503,13.17966 -3.63906,5.61607 -8.73074,12.00916 -6.51466,19.07476 0.13372,5.10507 2.98771,12.72042 5.57121,4.11055 4.42157,-7.03861 4.37894,-17.14711 12.15287,-21.71646 5.74965,-2.68193 11.714,-5.86014 18.29875,-5.15191 5.61328,-0.56953 11.22937,0.87878 15.90936,3.96063 l 0.38352,0.14116 0.20817,0.0775 0,0 z"
       id="path8735"
       inkscape:connector-curvature="0" />
  </g>
</svg>
